<svg aria-hidden="true" style="position: absolute; width: 0; height: 0; overflow: hidden;" version="1.1" xmlns="http://www.w3.org/2000/svg" xmlns:xlink="http://www.w3.org/1999/xlink">
<defs>
<symbol id="icon-shopping-cart" viewBox="0 0 32 32">
<path fill="#5297d7" style="fill: var(--color1, #5297d7)" d="M11.556 25.859c-0.527 0-1.043 0.142-1.482 0.409s-0.78 0.645-0.982 1.088c-0.202 0.443-0.255 0.93-0.152 1.401s0.357 0.902 0.73 1.241 0.848 0.57 1.365 0.664c0.517 0.094 1.053 0.046 1.541-0.138s0.904-0.494 1.197-0.893c0.293-0.399 0.449-0.867 0.449-1.347 0-0.643-0.281-1.26-0.781-1.714s-1.178-0.71-1.886-0.71zM30.222 21.010h-21.333c-0.472 0-0.924-0.17-1.257-0.473s-0.521-0.714-0.521-1.143 0.187-0.84 0.521-1.143c0.333-0.303 0.786-0.473 1.257-0.473h15.095c1.158-0.003 2.284-0.348 3.209-0.982s1.598-1.524 1.92-2.535l2.818-8.97c0.075-0.24 0.088-0.493 0.038-0.739s-0.163-0.477-0.328-0.677c-0.166-0.2-0.38-0.361-0.626-0.473s-0.517-0.17-0.792-0.17h-21.796c-0.368-0.942-1.047-1.758-1.945-2.337s-1.969-0.891-3.069-0.896h-1.636c-0.472 0-0.924 0.17-1.257 0.473s-0.521 0.714-0.521 1.143c0 0.429 0.187 0.84 0.521 1.143s0.786 0.473 1.257 0.473h1.637c0.386 0.001 0.761 0.116 1.070 0.327s0.533 0.508 0.641 0.845l0.276 0.881v0.008l2.917 9.28c-1.358 0.132-2.608 0.732-3.494 1.678s-1.338 2.163-1.265 3.403c0.073 1.24 0.667 2.407 1.658 3.26s2.306 1.329 3.671 1.328h21.333c0.472 0 0.924-0.17 1.257-0.473s0.521-0.714 0.521-1.143-0.187-0.84-0.521-1.143c-0.333-0.303-0.786-0.473-1.257-0.473zM27.865 6.465l-2.169 6.908c-0.107 0.338-0.332 0.634-0.641 0.846s-0.684 0.326-1.071 0.327h-11.977l-0.453-1.442-2.085-6.639h18.396zM25.778 25.859c-0.527 0-1.043 0.142-1.481 0.409s-0.78 0.645-0.982 1.088c-0.202 0.443-0.255 0.93-0.152 1.401s0.357 0.902 0.73 1.241 0.848 0.57 1.365 0.664c0.517 0.094 1.053 0.046 1.541-0.138s0.904-0.494 1.197-0.893c0.293-0.399 0.449-0.867 0.449-1.347 0-0.643-0.281-1.26-0.781-1.714s-1.178-0.71-1.886-0.71z"></path>
</symbol>
<symbol id="icon-flowers-store-logo" viewBox="0 0 37 32">
<path fill="#a3c8ea" style="fill: var(--color1, #a3c8ea); stroke: var(--color2, #133351)" stroke="#133351" stroke-linejoin="round" stroke-linecap="round" stroke-miterlimit="4" stroke-width="0.4444" d="M15.892 18.943c-0.054 0.14-0.117 0.288-0.177 0.432-0.045 0.106-0.088 0.21-0.127 0.306l-0 0.001c-0.053 0.132-0.11 0.268-0.166 0.404-0.050 0.12-0.099 0.24-0.147 0.357l-0.003 0.006c-0.109 0.245-0.235 0.503-0.357 0.753-0.062 0.127-0.123 0.252-0.181 0.373-0.129 0.272-0.269 0.543-0.407 0.811-0.078 0.15-0.155 0.3-0.229 0.448l-0 0.001c-0.105 0.206-0.219 0.415-0.332 0.621-0.074 0.135-0.147 0.268-0.217 0.399-0.152 0.286-0.346 0.637-0.515 0.901-0.032 0.054-0.065 0.108-0.099 0.162-0.040 0.066-0.081 0.133-0.121 0.2-0 0-0 0-0 0l-0.189-0.11 3.268-6.066zM15.892 18.943c0.356-0.872 0.69-1.773 0.993-2.659l-0.993 2.659zM11.594 25.837h-0l5.292-9.553c0.195-0.569 0.389-1.146 0.543-1.732 0.021-0.077 0.042-0.153 0.062-0.228 0.051-0.183 0.101-0.365 0.148-0.566l0.245-0.932c0.083-0.322 0.158-0.652 0.232-0.976 0.031-0.135 0.061-0.268 0.092-0.4 0.001-0.002 0.001-0.005 0.002-0.007 0.077-0.391 0.146-0.745 0.224-1.154 0.083-0.37 0.141-0.737 0.196-1.102v0l0-0.002c0.033-0.227 0.064-0.45 0.093-0.679v0l0-0.002c0.005-0.040 0.010-0.081 0.015-0.122 0.015-0.125 0.031-0.253 0.044-0.373v0l0-0.001c0.029-0.29 0.038-0.518 0.029-0.662-0.002-0.037-0.006-0.072-0.012-0.105-0.005-0.026-0.016-0.074-0.044-0.119-0.015-0.023-0.046-0.065-0.104-0.091-0.068-0.030-0.138-0.024-0.193 0.001-0.046 0.021-0.075 0.053-0.090 0.070-0.016 0.020-0.028 0.039-0.036 0.055-0.031 0.058-0.056 0.151-0.077 0.236-0.022 0.094-0.045 0.21-0.065 0.332-0.038 0.238-0.078 0.507-0.113 0.768-0.033 0.203-0.064 0.406-0.096 0.609v0c-0.032 0.204-0.064 0.407-0.096 0.61l-0.001 0.006c-0.024 0.184-0.059 0.364-0.097 0.553-0.007 0.035-0.014 0.070-0.021 0.106-0.034 0.161-0.069 0.318-0.103 0.476l-0 0c-0.035 0.158-0.069 0.317-0.104 0.479-0 0-0 0-0 0.001l-0.155 0.71-0.001 0.003c-0.087 0.431-0.198 0.835-0.312 1.251-0.053 0.193-0.107 0.389-0.159 0.591-0.071 0.23-0.134 0.453-0.197 0.673-0.089 0.314-0.177 0.622-0.283 0.937h-0l-0.001 0.002c-0.035 0.108-0.070 0.214-0.104 0.32-0.079 0.246-0.157 0.487-0.243 0.727-0.093 0.241-0.183 0.49-0.273 0.736l-0.019 0.053c-0.097 0.265-0.193 0.528-0.291 0.78l-0.001 0.002c-0.178 0.47-0.334 0.881-0.546 1.347-0.124 0.272-0.242 0.53-0.363 0.804-0.116 0.237-0.222 0.468-0.327 0.697-0.159 0.345-0.314 0.683-0.495 1.024l-0-0-0.003 0.005c-0.539 1.083-1.144 2.147-1.775 3.173-0.055 0.086-0.107 0.17-0.159 0.252-0.089 0.141-0.174 0.277-0.262 0.413zM18.368 7.319c0-0 0 0.001 0.001 0.003-0.001-0.002-0.001-0.003-0.001-0.003z"></path>
<path fill="#a3c8ea" style="fill: var(--color1, #a3c8ea); stroke: var(--color2, #133351)" stroke="#133351" stroke-linejoin="round" stroke-linecap="round" stroke-miterlimit="4" stroke-width="0.4444" d="M17.047 14.941l-0-0-0.002 0.004c-0.017 0.029-0.035 0.058-0.054 0.088-0.053 0.085-0.108 0.175-0.158 0.267l-0.046 0.085c-0.002 0.004-0.004 0.008-0.006 0.012-0.030 0.064-0.051 0.125-0.063 0.182-0.011 0.053-0.017 0.121 0.005 0.188h-0l0.002 0.005c0.015 0.045 0.049 0.1 0.115 0.134 0.063 0.033 0.124 0.030 0.162 0.023 0.068-0.013 0.121-0.050 0.147-0.070 0.062-0.047 0.125-0.116 0.176-0.181l0.001-0.001c0.113-0.147 0.232-0.321 0.338-0.48l0.004-0.006c0.058-0.093 0.12-0.186 0.186-0.274l0.001-0.001c0.007-0.010 0.014-0.019 0.021-0.028 0.024-0.033 0.044-0.060 0.065-0.084h0l0.003-0.004c0.041-0.051 0.083-0.109 0.121-0.163 0.007-0.010 0.014-0.020 0.021-0.030 0.031-0.044 0.059-0.084 0.085-0.12l0-0c0.030-0.039 0.058-0.078 0.085-0.115 0.057-0.077 0.11-0.149 0.167-0.221 0.027-0.034 0.054-0.067 0.080-0.1 0.082-0.102 0.159-0.198 0.241-0.291 0.026-0.029 0.055-0.060 0.084-0.092 0.076-0.082 0.158-0.172 0.229-0.258h0l0.002-0.002c0.021-0.026 0.049-0.060 0.078-0.095 0.039-0.047 0.080-0.097 0.113-0.139 0.054-0.066 0.117-0.134 0.181-0.198 0.002-0.002 0.004-0.004 0.006-0.006 0.235-0.251 0.482-0.495 0.733-0.718 0 0 0-0 0-0l0.503-0.447c0.031-0.030 0.056-0.055 0.079-0.077 0.043-0.043 0.077-0.077 0.125-0.115v0l0.002-0.001 0.274-0.219c0.139-0.101 0.28-0.206 0.416-0.308 0.043-0.032 0.081-0.061 0.117-0.088 0.075-0.057 0.14-0.107 0.223-0.16 0.003-0.002 0.006-0.004 0.009-0.006 0.049-0.035 0.1-0.066 0.159-0.102l0.003-0.002c0.056-0.034 0.118-0.073 0.18-0.117 0.034-0.024 0.068-0.049 0.097-0.071 0.004-0.003 0.008-0.006 0.012-0.009 0.032-0.024 0.060-0.045 0.088-0.063 0.050-0.030 0.112-0.066 0.168-0.108 0.098-0.072 0.182-0.152 0.233-0.232 0.023-0.036 0.057-0.1 0.056-0.178-0.001-0.044-0.013-0.094-0.046-0.141s-0.078-0.074-0.119-0.089v0l-0.001-0.001c-0.050-0.018-0.097-0.017-0.123-0.015-0.030 0.002-0.058 0.008-0.083 0.014-0.049 0.012-0.101 0.032-0.15 0.054l-0-0-0.005 0.003c-0.089 0.043-0.18 0.093-0.27 0.145l-0-0-0.003 0.002c-0.138 0.082-0.272 0.175-0.399 0.262l-0.003 0.002v-0l-0.003 0.002-0.209 0.15c-0.038 0.026-0.077 0.050-0.121 0.077-0.008 0.005-0.015 0.009-0.023 0.014-0.053 0.032-0.112 0.069-0.171 0.113-0.058 0.042-0.116 0.091-0.169 0.134-0.019 0.016-0.037 0.031-0.054 0.044-0.094 0.075-0.188 0.148-0.282 0.221l-0 0c-0.094 0.073-0.189 0.147-0.286 0.224-0.002 0.002-0.005 0.004-0.007 0.006-0.159 0.137-0.323 0.28-0.482 0.431l-0.313 0.286c-0.035 0.034-0.074 0.069-0.115 0.107-0.116 0.107-0.249 0.23-0.354 0.358-0.072 0.085-0.135 0.152-0.204 0.225-0.050 0.053-0.102 0.108-0.163 0.176-0.075 0.081-0.147 0.155-0.226 0.235-0.003 0.003-0.006 0.007-0.009 0.010-0.163 0.186-0.315 0.377-0.466 0.567-0.217 0.264-0.421 0.545-0.618 0.819-0.073 0.101-0.145 0.201-0.217 0.298-0.002 0.002-0.003 0.004-0.004 0.006-0.060 0.087-0.114 0.172-0.166 0.254l-0.001 0.001zM17.397 14.804c0.004-0.006 0.009-0.012 0.013-0.018l0.84-0.769c-0.060 0.075-0.118 0.153-0.176 0.232-0.027 0.036-0.054 0.073-0.081 0.109-0.029 0.039-0.060 0.083-0.091 0.127-0.044 0.063-0.089 0.127-0.13 0.178-0.012 0.014-0.024 0.029-0.036 0.045-0.019 0.027-0.039 0.053-0.058 0.080 0 0 0 0 0 0-0.029 0.040-0.058 0.080-0.087 0.12-0.039 0.057-0.076 0.114-0.111 0.17-0.020 0.029-0.039 0.059-0.059 0.089-0.020 0.034-0.040 0.065-0.059 0.096-0.050 0.081-0.096 0.155-0.139 0.234l-0.043 0.079c-0.018 0.040-0.026 0.066-0.029 0.080-0.001 0.005-0.001 0.008-0.001 0.008s0-0 0-0.001c0-0.002-0-0.013-0.005-0.030l-0.104 0.033c-0.052 0.047-0.095 0.067-0.107 0.034-0.011-0.036-0.003-0.102 0.040-0.199-0.021-0.002-0.039 0-0.050 0.003-0.024 0.005-0.039 0.012-0.042 0.014s-0.003 0.002-0.003 0.002 0.001-0.001 0.003-0.002c0.012-0.009 0.032-0.028 0.055-0.054 0.001-0.001 0.001-0.002 0.002-0.002 0.012-0.013 0.024-0.028 0.037-0.044 0.008-0.011 0.017-0.022 0.025-0.033 0.076-0.101 0.155-0.215 0.234-0.331 0-0 0-0 0-0 0.052-0.082 0.105-0.165 0.163-0.249zM17.12 15.583c-0.025 0.030-0.051 0.056-0.074 0.078l0.097-0.033c-0.005-0.013-0.012-0.029-0.023-0.045z"></path>
<path fill="#a3c8ea" style="fill: var(--color1, #a3c8ea); stroke: var(--color2, #133351)" stroke="#133351" stroke-linejoin="round" stroke-linecap="round" stroke-miterlimit="4" stroke-width="0.4444" d="M16.027 18.857c0 0 0-0 0-0.001l-0 0.001zM22.651 15.844c0.056-0.007 0.123-0.016 0.191-0.032 0.118-0.026 0.228-0.068 0.309-0.126 0.038-0.027 0.092-0.075 0.121-0.146 0.036-0.088 0.020-0.187-0.045-0.26-0.038-0.043-0.084-0.064-0.109-0.074-0.029-0.011-0.059-0.018-0.083-0.022-0.048-0.008-0.102-0.011-0.15-0.012v-0h-0.004c-0.096-0-0.202 0.009-0.304 0.020-0.004 0-0.007 0.001-0.011 0.001-0.147 0.024-0.305 0.051-0.46 0.085v-0l-0.003 0.001-0.242 0.058c-0.045 0.009-0.090 0.016-0.142 0.024-0.005 0.001-0.011 0.002-0.016 0.002-0.058 0.009-0.125 0.019-0.195 0.035h-0l-0.002 0.001c-0.094 0.023-0.185 0.052-0.269 0.078l-0.001 0c-0.14 0.041-0.273 0.079-0.407 0.118-0.090 0.026-0.18 0.052-0.272 0.079-0.004 0.001-0.008 0.002-0.012 0.004l-0.003 0.001c-0.194 0.068-0.395 0.138-0.597 0.223l-0.381 0.15c-0.003 0.001-0.006 0.002-0.008 0.004-0.042 0.018-0.088 0.038-0.136 0.058-0.145 0.061-0.311 0.13-0.457 0.216-0.1 0.057-0.19 0.103-0.288 0.153-0.060 0.031-0.122 0.063-0.192 0.099-0.047 0.025-0.094 0.048-0.143 0.072l-0.001 0c-0.048 0.024-0.099 0.049-0.151 0.076-0.003 0.001-0.005 0.003-0.008 0.004-0.211 0.121-0.417 0.249-0.623 0.385-0.3 0.185-0.591 0.398-0.871 0.604-0.093 0.068-0.184 0.135-0.274 0.2l-0-0-0.004 0.003c-0.088 0.066-0.168 0.13-0.246 0.2-0.017 0.014-0.034 0.029-0.051 0.044-0.085 0.072-0.174 0.148-0.274 0.241-0.003 0.003-0.006 0.006-0.009 0.009l-0.067 0.069-0.004 0.004c-0.095 0.103-0.166 0.22-0.171 0.337-0 0.003-0 0.006-0 0.009 0 0.046 0.014 0.106 0.062 0.158 0.047 0.050 0.105 0.069 0.146 0.074 0.071 0.010 0.135-0.010 0.166-0.021 0.075-0.026 0.157-0.073 0.226-0.121l0 0 0.004-0.003c0.15-0.108 0.316-0.239 0.466-0.359v0l0.002-0.002c0.092-0.076 0.177-0.146 0.266-0.208h0l0.002-0.001c0.022-0.016 0.039-0.029 0.053-0.040 0.023-0.018 0.039-0.029 0.057-0.040l0.006-0.004c0.059-0.036 0.119-0.082 0.17-0.121 0.005-0.003 0.009-0.007 0.013-0.010 0.049-0.038 0.091-0.070 0.13-0.096 0.056-0.038 0.111-0.077 0.163-0.114 0.006-0.004 0.012-0.008 0.017-0.012 0.057-0.041 0.111-0.078 0.165-0.113 0.059-0.037 0.115-0.072 0.168-0.106 0.087-0.056 0.17-0.109 0.258-0.159 0.015-0.008 0.031-0.017 0.047-0.025 0.115-0.061 0.242-0.129 0.357-0.199 0.044-0.027 0.087-0.054 0.13-0.080l0-0c0.042-0.026 0.084-0.052 0.127-0.078 0.080-0.048 0.155-0.091 0.23-0.124 0.003-0.001 0.007-0.003 0.010-0.005 0.303-0.152 0.61-0.296 0.915-0.412 0-0 0-0 0-0l0.616-0.231c0.044-0.018 0.078-0.033 0.108-0.046 0.053-0.024 0.093-0.041 0.148-0.057h0l0.003-0.001 0.327-0.101c0.164-0.042 0.327-0.084 0.485-0.124l0.001-0c0.041-0.011 0.079-0.021 0.115-0.030 0.098-0.026 0.181-0.049 0.278-0.065 0.003-0.001 0.006-0.001 0.009-0.002 0.055-0.011 0.11-0.019 0.174-0.028l0.009-0.001c0.064-0.009 0.136-0.019 0.209-0.036 0.042-0.008 0.084-0.019 0.118-0.028 0.004-0.001 0.008-0.002 0.012-0.003 0.038-0.010 0.068-0.017 0.098-0.023zM22.891 15.343c-0 0-0 0-0 0l0-0z"></path>
<path fill="#a3c8ea" style="fill: var(--color1, #a3c8ea); stroke: var(--color2, #133351)" stroke="#133351" stroke-linejoin="round" stroke-linecap="round" stroke-miterlimit="4" stroke-width="0.4444" d="M10.837 15.442c0.114 0.145 0.21 0.295 0.305 0.455 0.072 0.113 0.138 0.227 0.206 0.349 0.001 0.003 0.003 0.005 0.004 0.008l0.002 0.004c0.268 0.542 0.551 1.113 0.742 1.724 0.092 0.247 0.162 0.505 0.229 0.752 0.019 0.069 0.037 0.138 0.056 0.205 0.002 0.006 0.003 0.012 0.004 0.018 0.024 0.127 0.044 0.249 0.066 0.374 0.005 0.027 0.009 0.054 0.014 0.082 0.029 0.136 0.049 0.264 0.069 0.387 0.003 0.017 0.005 0.034 0.008 0.050 0.017 0.107 0.033 0.211 0.053 0.319 0.045 0.211 0.058 0.449 0.070 0.663 0.005 0.086 0.010 0.168 0.016 0.243 0 0.004 0.001 0.009 0.001 0.013l0.012 0.592c0.007 0.211-0.002 0.431-0.010 0.641-0.004 0.096-0.007 0.19-0.010 0.28-0 0.007-0.001 0.014-0.001 0.021-0.013 0.11-0.025 0.221-0.037 0.333-0.025 0.234-0.051 0.473-0.092 0.715-0.004 0.029-0.008 0.057-0.012 0.086-0.014 0.103-0.029 0.207-0.047 0.312l-0 0.003c-0.018 0.101-0.044 0.197-0.068 0.285-0.006 0.022-0.012 0.043-0.018 0.064-0.019 0.066-0.036 0.128-0.052 0.192l-0.002 0.006c-0.013 0.047-0.023 0.095-0.034 0.151-0.001 0.007-0.003 0.014-0.004 0.021-0.013 0.061-0.027 0.132-0.050 0.203-0.060 0.225-0.125 0.449-0.195 0.671-0.001 0.003-0.002 0.006-0.003 0.009-0.053 0.144-0.112 0.291-0.168 0.417l-0 0c-0.030 0.068-0.063 0.132-0.094 0.185-0.026 0.043-0.068 0.109-0.123 0.152-0.003 0.003-0.007 0.005-0.010 0.007-0.030 0.021-0.087 0.053-0.164 0.050-0.088-0.003-0.151-0.050-0.186-0.098-0.031-0.041-0.042-0.085-0.048-0.112-0.006-0.030-0.008-0.060-0.008-0.087 0-0.104 0.028-0.245 0.076-0.405M10.837 15.442l-0.009 0.844c0.081 0.133 0.162 0.266 0.226 0.409 0.031 0.057 0.063 0.129 0.089 0.188M10.837 15.442c-0.022-0.031-0.048-0.062-0.066-0.085-0.006-0.008-0.012-0.014-0.016-0.020l0-0-0.003-0.004c-0.057-0.067-0.112-0.122-0.166-0.163-0.048-0.037-0.116-0.079-0.199-0.089M10.837 15.442l-0.314-0.032c-0.074-0.076-0.131-0.111-0.169-0.115M11.332 25.784l0.191 0.051c0.034-0.080 0.068-0.166 0.101-0.253 0-0 0-0 0-0 0.005-0.014 0.010-0.027 0.015-0.041 0.014-0.043 0.027-0.086 0.040-0.129 0.004-0.015 0.007-0.031 0.011-0.046 0.011-0.047 0.022-0.095 0.035-0.142M11.332 25.784c0 0-0 0-0 0l0.191 0.050c-0.013 0.032-0.027 0.063-0.040 0.092M11.332 25.784c0.014-0.048 0.031-0.094 0.046-0.137l0.002-0.004c0.015-0.042 0.028-0.080 0.040-0.118l0.002-0.005h0c0.017-0.049 0.030-0.101 0.043-0.16 0.003-0.012 0.005-0.024 0.008-0.036 0.011-0.047 0.023-0.099 0.037-0.15M11.725 25.223c0.022-0.090 0.050-0.179 0.078-0.268 0.019-0.060 0.038-0.12 0.055-0.179 0.004-0.020 0.009-0.040 0.013-0.062 0.001-0.007 0.003-0.014 0.004-0.021 0.003-0.016 0.007-0.032 0.010-0.049 0 0 0-0 0-0 0.008-0.041 0.018-0.083 0.030-0.126 0.013-0.055 0.028-0.11 0.043-0.163 0.024-0.11 0.045-0.218 0.065-0.332M11.725 25.223l-0.216-0.046c0-0.001 0-0.002 0.001-0.003M11.725 25.223l-0.214-0.051c-0 0.001-0.001 0.002-0.001 0.003M12.024 24.022c0.015-0.097 0.033-0.195 0.051-0.293 0.027-0.151 0.055-0.302 0.073-0.449M12.024 24.022l-0.219-0.028c0-0.001 0-0.001 0-0.002M12.024 24.022l-0.219-0.032c-0 0.001-0 0.001-0 0.002M12.147 23.28l0.056-0.513c0.012-0.11 0.011-0.208 0.011-0.309-0-0.039-0.001-0.079-0-0.121 0.010-0.314 0.016-0.63 0.012-0.942-0.004-0.487-0.052-0.978-0.125-1.454-0.016-0.138-0.043-0.271-0.074-0.398-0.015-0.068-0.031-0.135-0.048-0.202s-0.033-0.134-0.048-0.202M12.147 23.28l-0.221-0.018 0-0.001M12.147 23.28l-0.22-0.021c-0 0-0 0.001-0 0.001M11.931 19.14c-0.024-0.097-0.049-0.198-0.074-0.3-0.026-0.103-0.052-0.207-0.076-0.308M11.931 19.14l-0.216 0.053c-0-0.001-0-0.001-0.001-0.002M11.931 19.14l-0.217 0.049c0 0.001 0 0.001 0 0.002M11.78 18.533c-0.039-0.153-0.090-0.301-0.141-0.449-0.025-0.073-0.050-0.145-0.073-0.218-0.036-0.111-0.082-0.217-0.128-0.323-0.030-0.068-0.059-0.136-0.087-0.206M11.78 18.533l-0.215 0.056c-0-0-0-0.001-0-0.001M11.78 18.533l-0.216 0.053c0 0 0 0.001 0 0.001M11.351 17.338c-0.035-0.088-0.080-0.183-0.124-0.273-0.031-0.064-0.060-0.126-0.085-0.182M11.351 17.338l-0.207 0.081c-0-0-0-0-0-0.001M11.351 17.338l-0.208 0.079c0 0 0 0 0 0.001M11.143 16.882l-0.205 0.087c-0-0-0-0-0-0M11.143 16.882l-0.205 0.087c0 0 0 0 0 0M11.483 25.926l-1.080-10.318c-0.043-0.051-0.076-0.082-0.097-0.098-0.010-0.007-0.014-0.010-0.014-0.010s0 0 0 0v0c0 0 0.009 0.004 0.024 0.007 0.002 0 0.003 0.001 0.005 0.001s0.003 0 0.004 0c0.016 0.002 0.035 0.001 0.056-0.002-0.017-0.039-0.032-0.075-0.041-0.107-0.001-0.003-0.002-0.006-0.003-0.009-0.017-0.061-0.015-0.1 0.017-0.095M11.483 25.926c-0.025 0.057-0.050 0.105-0.071 0.14-0.010 0.018-0.019 0.029-0.024 0.037-0.001 0.002-0.002 0.003-0.003 0.004M11.483 25.926l-0.098 0.181c0-0 0-0 0.001-0.001M11.51 25.174c0.024-0.096 0.054-0.191 0.081-0.278 0.002-0.008 0.005-0.015 0.007-0.022 0.031-0.097 0.057-0.185 0.076-0.27l0.001-0.004h0c0.052-0.215 0.093-0.401 0.129-0.607M11.805 23.992c0.017-0.108 0.035-0.209 0.053-0.308 0.026-0.143 0.051-0.28 0.069-0.424M11.927 23.26l0.056-0.512 0-0.001c0.011-0.097 0.010-0.177 0.009-0.272-0-0.041-0.001-0.086-0-0.136l0-0.004h0c0.010-0.313 0.016-0.625 0.012-0.933l-0-0.001c-0.004-0.475-0.050-0.956-0.122-1.424l-0.001-0.007c-0.015-0.127-0.040-0.252-0.069-0.373l-0.001-0.004h0c-0.015-0.065-0.030-0.13-0.047-0.198l-0-0.001c-0.016-0.066-0.033-0.134-0.048-0.203M11.714 19.191c-0.023-0.096-0.048-0.195-0.074-0.297l-0-0.002c-0.026-0.102-0.051-0.205-0.076-0.306M11.564 18.587c-0.037-0.145-0.083-0.279-0.132-0.422-0.026-0.074-0.052-0.151-0.078-0.232M11.354 17.934c0 0 0 0 0 0l-0-0zM11.354 17.934c-0.026-0.081-0.059-0.161-0.096-0.247-0.008-0.018-0.016-0.036-0.024-0.054-0.030-0.068-0.062-0.141-0.090-0.215M11.144 17.418c-0.027-0.068-0.061-0.142-0.099-0.22-0.006-0.013-0.012-0.026-0.019-0.039-0.031-0.064-0.063-0.13-0.089-0.19M10.938 16.969c-0.026-0.060-0.055-0.123-0.081-0.171-0.003-0.005-0.005-0.010-0.007-0.015-0.057-0.128-0.131-0.25-0.213-0.385l-0.003-0.005c-0.124-0.218-0.26-0.447-0.381-0.651l-0.002-0.004h0c-0.052-0.092-0.099-0.194-0.124-0.279-0.011-0.037-0.026-0.097-0.019-0.159 0.003-0.031 0.016-0.096 0.074-0.152 0.066-0.064 0.148-0.075 0.206-0.068M10.386 15.081c-0.001-0-0.002-0-0.003-0l-0.029 0.214M10.386 15.081c0.002 0 0.004 0.001 0.006 0.001l-0.038 0.213M11.386 26.106c0.002-0.002 0.006-0.007 0.014-0.012l0.079 0.097M11.386 26.106l0.093 0.084M11.478 26.191c0.001 0.069 0.022 0.095 0.057 0.070 0.027-0.021 0.066-0.081 0.107-0.162 0.013 0.011 0.023 0.022 0.031 0.033 0.020 0.028 0.025 0.051 0.026 0.054l0 0c0 0.002 0 0.003 0.001 0.003s-0-0.003-0-0.009c0-0.029 0.006-0.081 0.024-0.157 0-0 0-0 0-0 0.008-0.037 0.020-0.079 0.034-0.126l0-0c0.011-0.037 0.024-0.074 0.039-0.118l0.002-0.007c0.014-0.039 0.029-0.083 0.043-0.129 0.004-0.013 0.008-0.025 0.012-0.038 0-0 0-0 0-0 0.015-0.050 0.027-0.099 0.038-0.144 0.053-0.173 0.102-0.348 0.149-0.524 0.012-0.038 0.022-0.077 0.030-0.116 0.012-0.044 0.024-0.089 0.034-0.134 0.010-0.041 0.020-0.081 0.029-0.121 0-0 0-0 0-0 0.013-0.056 0.026-0.111 0.038-0.166 0.004-0.012 0.007-0.025 0.011-0.037 0.030-0.107 0.061-0.214 0.081-0.327 0.017-0.102 0.031-0.203 0.046-0.305 0.004-0.030 0.009-0.061 0.013-0.091 0.040-0.237 0.065-0.465 0.089-0.696l-0.935 3.246zM12.459 21.096v0zM12.459 21.096c-0.007-0.088-0.013-0.177-0.018-0.268-0.012-0.209-0.024-0.42-0.065-0.615-0.021-0.113-0.038-0.221-0.055-0.328-0.022-0.141-0.044-0.281-0.075-0.43-0.005-0.029-0.010-0.058-0.015-0.086-0.021-0.125-0.041-0.245-0.065-0.369M12.459 21.096l-0.293-2.098M12.166 18.999c-0.020-0.071-0.039-0.141-0.058-0.212-0.067-0.247-0.134-0.495-0.224-0.734-0.186-0.597-0.463-1.156-0.734-1.703M12.166 18.999l-1.016-2.649M11.151 16.35c-0.067-0.121-0.131-0.232-0.201-0.341l0.201 0.341zM11.409 26.086c0.009-0.006 0.038-0.025 0.082-0.030-0.009 0.050-0.013 0.092-0.014 0.125l-0.069-0.095z"></path>
<path fill="#a3c8ea" style="fill: var(--color1, #a3c8ea); stroke: var(--color2, #133351)" stroke="#133351" stroke-linejoin="round" stroke-linecap="round" stroke-miterlimit="4" stroke-width="0.4444" d="M12.403 25.678c-0.037 0.023-0.077 0.047-0.113 0.070v0l-0.002 0.002c-0.075 0.050-0.137 0.099-0.186 0.147-0.045 0.045-0.090 0.1-0.115 0.165-0.015 0.039-0.032 0.111 0.005 0.187 0.039 0.080 0.111 0.111 0.15 0.122 0.070 0.020 0.141 0.008 0.175 0.002 0.087-0.016 0.194-0.054 0.292-0.097l0-0c0.224-0.099 0.47-0.22 0.698-0.332l0 0 0.005-0.003c0.135-0.071 0.269-0.138 0.403-0.195 0.004-0.001 0.007-0.003 0.011-0.005 0.056-0.027 0.123-0.057 0.172-0.076 0.079-0.030 0.165-0.070 0.243-0.106l0.010-0.005c0.077-0.036 0.147-0.069 0.211-0.094l0 0 0.006-0.002c0.053-0.023 0.104-0.045 0.153-0.067 0.12-0.053 0.235-0.103 0.355-0.149 0.085-0.031 0.165-0.062 0.242-0.092 0.13-0.050 0.254-0.098 0.387-0.141v0l0.001-0c0.071-0.023 0.151-0.049 0.233-0.074 0.116-0.037 0.237-0.074 0.342-0.111v0l0.002-0.001c0.062-0.022 0.123-0.043 0.186-0.065l0.001-0c0.062-0.021 0.126-0.043 0.19-0.066 0.112-0.040 0.231-0.074 0.352-0.105v0l0.004-0.001c0.429-0.119 0.87-0.223 1.302-0.303 0.14-0.024 0.281-0.048 0.422-0.072l0.001-0c0.142-0.024 0.283-0.049 0.423-0.073 0.061-0.010 0.119-0.022 0.171-0.033 0.010-0.002 0.020-0.004 0.030-0.006 0.061-0.012 0.117-0.023 0.175-0.030 0 0 0-0 0.001-0l0.452-0.053c0.108-0.008 0.218-0.016 0.328-0.023h0c0.111-0.008 0.223-0.016 0.334-0.024 0.039-0.003 0.077-0.006 0.113-0.008 0.148-0.011 0.282-0.021 0.431-0.022 0.003 0 0.006-0 0.008-0 0.078-0.003 0.157-0.001 0.245 0.001l0.003 0c0.085 0.002 0.178 0.005 0.273 0.001v0l0.004-0c0.038-0.002 0.072-0.005 0.104-0.007 0.074-0.005 0.137-0.010 0.204-0.008 0.017 0 0.036 0.001 0.056 0.002 0.058 0.002 0.128 0.005 0.193 0.002 0.148-0.004 0.283-0.024 0.383-0.062 0.044-0.017 0.118-0.051 0.168-0.12 0.029-0.040 0.051-0.093 0.049-0.157-0.003-0.062-0.028-0.111-0.055-0.145-0.035-0.043-0.078-0.068-0.104-0.080-0.029-0.014-0.059-0.025-0.086-0.033-0.054-0.016-0.116-0.028-0.176-0.038-0.125-0.021-0.263-0.029-0.386-0.035l-0.006-0c-0.003-0-0.005-0-0.008-0-0.202-0.004-0.408-0.001-0.606 0.003v-0l-0.333 0.014c-0.065 0.002-0.13 0.001-0.199 0.001-0.009-0-0.017-0-0.026-0-0.078-0.001-0.163-0.001-0.252 0.004v-0l-0.005 0c-0.081 0.006-0.168 0.016-0.249 0.025-0.038 0.004-0.074 0.008-0.108 0.012-0.078 0.008-0.156 0.015-0.233 0.023-0.231 0.023-0.459 0.045-0.693 0.070-0.004 0-0.007 0.001-0.011 0.001-0.039 0.006-0.078 0.012-0.117 0.018-0.232 0.035-0.471 0.072-0.709 0.123l-0.528 0.101c-0.003 0.001-0.006 0.001-0.009 0.002-0.069 0.016-0.145 0.032-0.225 0.049-0.192 0.040-0.406 0.084-0.597 0.15-0.136 0.045-0.251 0.077-0.373 0.111-0.094 0.026-0.193 0.054-0.309 0.089-0.096 0.025-0.191 0.051-0.283 0.077-0.046 0.013-0.091 0.025-0.134 0.037-0.005 0.001-0.009 0.003-0.013 0.004-0.304 0.103-0.602 0.21-0.902 0.326-0.485 0.176-0.965 0.392-1.431 0.602-0.087 0.039-0.174 0.078-0.26 0.117v-0l-0.004 0.002c-0.131 0.062-0.249 0.124-0.361 0.184l-0.001 0.001c-0 0-0 0-0.001 0-0.014 0.007-0.028 0.015-0.042 0.022-0.144 0.075-0.292 0.153-0.448 0.251zM22.321 23.466c0 0-0.001 0.001-0.003 0.002 0.002-0.001 0.003-0.002 0.003-0.002z"></path>
<path fill="#a3c8ea" style="fill: var(--color1, #a3c8ea)" d="M18.031 7.533c-0.068-0.827-0.139-1.656-0.063-2.501s0.299-1.705 0.768-2.436c0.131-0.205 0.286-0.403 0.485-0.532s0.454-0.172 0.64-0.064c0.189 0.11 0.27 0.359 0.26 0.599s-0.102 0.478-0.193 0.708c-0.568 1.419-1.24 2.798-1.91 4.174z"></path>
<path fill="#133351" style="fill: var(--color2, #133351)" d="M17.591 7.573c0.019 0.238 0.232 0.413 0.475 0.391s0.424-0.233 0.405-0.471l-0.88 0.080zM18.736 2.597l0.372 0.228 0.001-0.002-0.374-0.226zM19.862 2.001l-0.229 0.373 0 0 0.228-0.373zM19.928 3.307l0.411 0.154 0.001-0.001-0.411-0.153zM17.62 7.299c-0.106 0.217-0.013 0.474 0.207 0.575s0.483 0.007 0.589-0.21l-0.796-0.366zM18.471 7.493c-0.068-0.834-0.135-1.626-0.063-2.428l-0.879-0.066c-0.080 0.888-0.005 1.753 0.062 2.573l0.88-0.080zM18.408 5.065c0.072-0.801 0.281-1.588 0.701-2.241l-0.745-0.456c-0.52 0.808-0.756 1.742-0.836 2.631l0.879 0.066zM19.11 2.823c0.119-0.188 0.233-0.321 0.352-0.398l-0.48-0.721c-0.281 0.182-0.477 0.444-0.619 0.667l0.747 0.452zM19.462 2.425c0.048-0.031 0.096-0.047 0.133-0.052s0.044 0.004 0.038 0l0.457-0.746c-0.382-0.222-0.826-0.107-1.109 0.077l0.48 0.721zM19.634 2.374c-0.009-0.005 0.005-0.002 0.022 0.040s0.028 0.103 0.025 0.171l0.882 0.027c0.014-0.311-0.083-0.76-0.472-0.986l-0.456 0.747zM19.681 2.586c-0.007 0.156-0.069 0.329-0.164 0.569l0.822 0.305c0.087-0.22 0.209-0.525 0.223-0.847l-0.882-0.027zM19.518 3.153c-0.561 1.402-1.226 2.767-1.897 4.145l0.796 0.366c0.669-1.373 1.349-2.767 1.923-4.203l-0.821-0.308z"></path>
<path fill="#a3c8ea" style="fill: var(--color1, #a3c8ea)" d="M17.955 10.141c0.323-1.138 0.895-2.222 1.658-3.141 0.162-0.195 0.338-0.386 0.553-0.504 0.218-0.116 0.487-0.139 0.661-0 0.146 0.115 0.204 0.326 0.187 0.531s-0.099 0.403-0.195 0.59c-0.61 1.178-1.78 1.927-2.882 2.61z"></path>
<path fill="#133351" style="fill: var(--color2, #133351)" d="M17.529 10.030c-0.066 0.231 0.072 0.468 0.307 0.529s0.479-0.076 0.544-0.307l-0.851-0.222zM19.613 7v0zM20.166 6.496l-0.208-0.379-0.005 0.003 0.212 0.377zM20.827 6.496l-0.281 0.338 0.001 0.001 0.279-0.339zM20.819 7.617l0.393 0.192 0-0-0.394-0.191zM17.704 9.862c-0.207 0.129-0.271 0.396-0.143 0.598s0.401 0.261 0.608 0.132l-0.465-0.73zM18.38 10.252c0.307-1.080 0.849-2.11 1.574-2.981l-0.682-0.541c-0.803 0.966-1.403 2.105-1.743 3.301l0.851 0.222zM19.954 7.271c0.16-0.192 0.29-0.325 0.424-0.398l-0.425-0.754c-0.295 0.162-0.517 0.413-0.681 0.61l0.682 0.542zM20.374 6.875c0.054-0.029 0.107-0.041 0.144-0.042 0.036-0.001 0.038 0.008 0.028 0l0.562-0.675c-0.368-0.292-0.849-0.202-1.149-0.041l0.415 0.759zM20.547 6.834c-0.007-0.005 0.003-0.001 0.014 0.031s0.017 0.079 0.013 0.132l0.881 0.057c0.023-0.282-0.047-0.661-0.349-0.898l-0.559 0.678zM20.574 6.998c-0.010 0.119-0.060 0.256-0.149 0.427l0.787 0.383c0.104-0.202 0.219-0.462 0.242-0.753l-0.881-0.057zM20.425 7.425c-0.545 1.053-1.603 1.744-2.721 2.437l0.465 0.73c1.086-0.673 2.368-1.481 3.043-2.784l-0.787-0.384z"></path>
<path fill="#a3c8ea" style="fill: var(--color1, #a3c8ea)" d="M17.729 10.407c-0.37-1.533-1.243-2.872-2.451-3.771-0.2-0.148-0.47-0.288-0.705-0.149-0.233 0.135-0.29 0.453-0.275 0.711 0.054 0.796 0.54 1.443 1.085 1.957 0.658 0.624 1.435 1.117 2.28 1.46z"></path>
<path fill="#133351" style="fill: var(--color2, #133351)" d="M17.296 10.513c0.056 0.231 0.295 0.371 0.533 0.312s0.387-0.293 0.331-0.524l-0.865 0.212zM15.278 6.636l0.274-0.344-0.001-0.001-0.273 0.345zM14.573 6.487l0.221 0.37 0.003-0.002-0.225-0.368zM14.297 7.198l-0.443 0.032 0 0.005 0.443-0.037zM15.382 9.155l0.313-0.312-0-0-0.313 0.312zM17.485 11.014c0.225 0.091 0.486-0.013 0.585-0.233s-0.005-0.472-0.229-0.564l-0.355 0.797zM18.161 10.301c-0.392-1.623-1.317-3.048-2.609-4.009l-0.549 0.688c1.124 0.837 1.945 2.090 2.293 3.533l0.865-0.212zM15.55 6.29c-0.116-0.086-0.281-0.192-0.475-0.249-0.203-0.060-0.469-0.074-0.727 0.077l0.449 0.736c-0.006 0.004-0.015 0.006-0.022 0.007-0.004 0 0.004-0.001 0.026 0.006 0.050 0.015 0.119 0.052 0.204 0.114l0.546-0.691zM14.351 6.117c-0.245 0.141-0.371 0.364-0.433 0.557s-0.074 0.392-0.065 0.556l0.887-0.063c-0.005-0.095 0.004-0.184 0.025-0.249s0.040-0.068 0.028-0.061l-0.443-0.74zM13.854 7.235c0.065 0.952 0.643 1.692 1.215 2.233l0.625-0.624c-0.517-0.489-0.911-1.043-0.954-1.682l-0.886 0.073zM15.069 9.467c0.698 0.662 1.521 1.184 2.416 1.547l0.355-0.797c-0.796-0.323-1.527-0.787-2.145-1.373l-0.626 0.623z"></path>
<path fill="#a3c8ea" style="fill: var(--color1, #a3c8ea)" d="M22.371 10.231c0.392-0.721 0.622-1.505 0.921-2.264 0.295-0.761 0.677-1.523 1.276-2.070 0.192-0.175 0.413-0.329 0.653-0.389s0.505-0.015 0.656 0.166c0.221 0.262 0.147 0.695 0.012 1.053-0.309 0.817-0.871 1.537-1.506 2.134-0.636 0.601-1.353 1.093-2.064 1.583z"></path>
<path fill="#133351" style="fill: var(--color2, #133351)" d="M21.982 10.032c-0.115 0.212-0.035 0.474 0.18 0.584s0.483 0.028 0.598-0.184l-0.778-0.4zM23.292 7.967l0.412 0.151 0.001-0.002-0.412-0.15zM24.568 5.897l-0.298-0.315-0 0 0.299 0.315zM25.876 5.674l-0.343 0.277 0.002 0.002 0.341-0.279zM25.887 6.727v0zM24.382 8.861l-0.304-0.311-0 0 0.304 0.31zM22.067 10.091c-0.201 0.138-0.251 0.409-0.112 0.604s0.413 0.241 0.614 0.103l-0.502-0.706zM22.76 10.431c0.408-0.752 0.664-1.602 0.943-2.313l-0.823-0.303c-0.317 0.808-0.523 1.526-0.898 2.216l0.778 0.4zM23.704 8.117c0.289-0.744 0.64-1.428 1.162-1.904l-0.597-0.63c-0.677 0.618-1.088 1.459-1.39 2.236l0.825 0.299zM24.866 6.213c0.17-0.155 0.325-0.252 0.457-0.285l-0.207-0.839c-0.347 0.086-0.635 0.299-0.848 0.493l0.597 0.631zM25.323 5.928c0.059-0.015 0.113-0.014 0.153-0.005 0.037 0.009 0.051 0.022 0.056 0.028l0.686-0.553c-0.293-0.352-0.76-0.394-1.102-0.309l0.207 0.839zM25.534 5.952c0.017 0.020 0.045 0.074 0.040 0.199-0.005 0.124-0.042 0.275-0.1 0.428l0.827 0.292c0.077-0.203 0.145-0.448 0.155-0.696 0.010-0.246-0.035-0.54-0.239-0.782l-0.683 0.557zM25.474 6.58c-0.278 0.736-0.793 1.402-1.396 1.97l0.607 0.621c0.666-0.627 1.276-1.401 1.616-2.299l-0.827-0.292zM24.078 8.551c-0.607 0.573-1.294 1.047-2.011 1.54l0.502 0.706c0.706-0.487 1.452-0.998 2.117-1.626l-0.608-0.62z"></path>
<path fill="#a3c8ea" style="fill: var(--color1, #a3c8ea)" d="M21.222 15.96c0.504-1.233 1.096-2.434 1.767-3.594 0.193-0.336 0.483-0.718 0.833-0.689 0.305 0.029 0.469 0.374 0.478 0.696 0.027 0.788-0.531 1.54-1.15 2.067s-1.337 0.926-1.891 1.526z"></path>
<path fill="#133351" style="fill: var(--color2, #133351)" d="M20.813 15.803c-0.091 0.223 0.018 0.474 0.244 0.561s0.483-0.023 0.574-0.246l-0.818-0.314zM22.99 12.366l0.383 0.211 0.001-0.002-0.384-0.209zM23.822 11.676l0.047-0.431-0.005-0-0.042 0.432zM24.301 12.373l-0.441 0.018 0 0.002 0.441-0.020zM20.934 15.677c-0.165 0.178-0.152 0.452 0.028 0.612s0.459 0.144 0.623-0.034l-0.651-0.577zM21.631 16.117c0.496-1.214 1.079-2.397 1.741-3.541l-0.766-0.421c-0.681 1.177-1.282 2.396-1.794 3.648l0.818 0.314zM23.373 12.575c0.088-0.154 0.184-0.291 0.279-0.382 0.046-0.044 0.081-0.067 0.105-0.078 0.011-0.005 0.017-0.007 0.020-0.007s0.003-0 0.003-0l0.084-0.863c-0.359-0.030-0.641 0.157-0.823 0.33-0.186 0.177-0.331 0.399-0.436 0.582l0.768 0.418zM23.775 12.108c-0.025-0.002-0.014-0.019 0.019 0.034 0.035 0.056 0.063 0.148 0.066 0.249l0.882-0.036c-0.007-0.221-0.065-0.463-0.191-0.667-0.128-0.207-0.351-0.411-0.681-0.442l-0.094 0.862zM23.86 12.393c0.020 0.587-0.409 1.222-0.996 1.721l0.573 0.652c0.652-0.554 1.339-1.423 1.305-2.412l-0.882 0.040zM22.864 14.113c-0.294 0.25-0.605 0.465-0.946 0.716-0.331 0.244-0.677 0.515-0.984 0.848l0.651 0.577c0.247-0.268 0.537-0.497 0.858-0.735 0.311-0.23 0.669-0.478 0.994-0.754l-0.573-0.652z"></path>
<path fill="#a3c8ea" style="fill: var(--color1, #a3c8ea)" d="M22.847 15.895c1.419-0.71 2.848-1.43 4.344-1.868 0.338-0.097 0.688-0.184 1.018-0.14 0.333 0.045 0.649 0.24 0.748 0.566 0.138 0.466-0.209 1.007-0.63 1.31-0.443 0.32-0.973 0.471-1.49 0.512-0.515 0.046-1.021-0.011-1.524-0.066-0.837-0.091-1.673-0.183-2.506-0.273z"></path>
<path fill="#133351" style="fill: var(--color2, #133351)" d="M22.65 15.512c-0.22 0.11-0.31 0.37-0.201 0.582s0.376 0.293 0.596 0.183l-0.395-0.765zM27.191 14.026l-0.118-0.413-0.003 0.001 0.121 0.413zM28.21 13.886l0.070-0.427-0.002-0-0.068 0.427zM28.958 14.452l0.427-0.126-0.001-0.004-0.426 0.13zM28.327 15.762l-0.26-0.345-0.001 0 0.261 0.344zM26.838 16.274l-0.027-0.43-0.005 0 0.032 0.429zM25.314 16.208l0.059-0.428-0-0-0.058 0.429zM22.865 15.507c-0.243-0.026-0.466 0.144-0.498 0.381s0.14 0.45 0.383 0.476l0.115-0.857zM23.045 16.277c1.427-0.714 2.818-1.414 4.267-1.838l-0.241-0.825c-1.544 0.452-3.010 1.192-4.421 1.898l0.395 0.765zM27.309 14.44c0.344-0.098 0.608-0.156 0.832-0.126l0.137-0.854c-0.436-0.057-0.871 0.058-1.205 0.154l0.236 0.827zM28.14 14.313c0.218 0.030 0.355 0.146 0.392 0.269l0.852-0.26c-0.161-0.528-0.655-0.802-1.104-0.863l-0.14 0.854zM28.53 14.578c0.029 0.096 0.015 0.232-0.073 0.399-0.087 0.166-0.231 0.326-0.39 0.44l0.52 0.689c0.262-0.189 0.503-0.451 0.659-0.748 0.156-0.296 0.247-0.664 0.138-1.033l-0.855 0.253zM28.067 15.418c-0.358 0.259-0.8 0.39-1.256 0.426l0.054 0.86c0.577-0.045 1.195-0.216 1.723-0.597l-0.521-0.688zM26.806 15.845c-0.462 0.041-0.922-0.009-1.433-0.065l-0.117 0.857c0.494 0.054 1.046 0.118 1.614 0.067l-0.064-0.859zM25.372 15.779c-0.837-0.091-1.673-0.183-2.507-0.273l-0.115 0.857c0.833 0.090 1.669 0.181 2.506 0.272l0.117-0.857z"></path>
<path fill="#a3c8ea" style="fill: var(--color1, #a3c8ea)" d="M20.078 16.335c1.791 0.044 3.432 1.059 4.252 2.627 0.093 0.18 0.176 0.37 0.191 0.583 0.011 0.211-0.061 0.447-0.234 0.59-0.224 0.189-0.538 0.15-0.782 0.056-0.818-0.325-1.295-1.147-1.743-1.922-0.446-0.769-0.971-1.577-1.817-1.825z"></path>
<path fill="#133351" style="fill: var(--color2, #133351)" d="M20.097 15.904c-0.245-0.006-0.452 0.182-0.462 0.421s0.179 0.436 0.424 0.442l0.038-0.863zM24.329 18.962l0.397-0.199-0.001-0.002-0.396 0.201zM24.52 19.545l0.443-0.030c-0-0.002-0-0.004-0-0.006l-0.443 0.036zM24.286 20.135l-0.283-0.327-0.004 0.003 0.287 0.324zM23.504 20.192l-0.174 0.4 0.004 0.002 0.17-0.402zM21.761 18.27l0.388-0.217-0-0.001-0.387 0.217zM20.079 16.031c-0.233-0.068-0.483 0.061-0.558 0.29s0.054 0.469 0.288 0.537l0.27-0.827zM20.058 16.767c1.627 0.040 3.126 0.964 3.875 2.397l0.792-0.402c-0.89-1.703-2.673-2.809-4.629-2.857l-0.038 0.863zM23.932 19.161c0.088 0.171 0.137 0.297 0.146 0.421l0.885-0.073c-0.021-0.302-0.138-0.555-0.236-0.746l-0.795 0.398zM24.077 19.575c0.006 0.12-0.040 0.205-0.074 0.233l0.566 0.655c0.312-0.257 0.41-0.645 0.394-0.947l-0.886 0.060zM23.999 19.811c-0.014 0.012-0.039 0.026-0.097 0.027-0.063 0.001-0.143-0.015-0.229-0.048l-0.339 0.803c0.285 0.11 0.816 0.221 1.238-0.134l-0.573-0.649zM23.678 19.791c-0.315-0.125-0.583-0.353-0.834-0.663-0.253-0.313-0.469-0.683-0.695-1.075l-0.775 0.433c0.221 0.382 0.468 0.81 0.77 1.183 0.305 0.376 0.684 0.722 1.187 0.922l0.348-0.8zM22.148 18.053c-0.224-0.386-0.485-0.813-0.808-1.176-0.325-0.366-0.733-0.69-1.261-0.845l-0.27 0.827c0.318 0.093 0.596 0.297 0.856 0.59 0.262 0.295 0.487 0.657 0.709 1.039l0.775-0.435z"></path>
<path fill="#a3c8ea" style="fill: var(--color1, #a3c8ea)" d="M16.639 15.835c0.128-1.187-0.015-2.36-0.289-3.472-0.095-0.379-0.203-0.759-0.401-1.083s-0.494-0.592-0.866-0.676c-0.37-0.087-0.819 0.034-1.089 0.356-0.205 0.243-0.287 0.566-0.273 0.867s0.119 0.578 0.253 0.831c0.655 1.242 1.989 1.98 2.501 3.304z"></path>
<path fill="#133351" style="fill: var(--color2, #133351)" d="M16.197 15.799c-0.026 0.237 0.151 0.446 0.395 0.466s0.463-0.156 0.488-0.393l-0.884-0.073zM16.35 12.363l0.432-0.108-0-0.002-0.432 0.11zM15.083 10.604l-0.113 0.419 0.005 0.001 0.108-0.42zM13.995 10.961l0.341 0.269 0.001-0.002-0.343-0.268zM13.974 12.659l0.396-0.202-0-0-0.396 0.203zM16.059 16.122c0.086 0.221 0.341 0.33 0.571 0.243s0.347-0.338 0.262-0.559l-0.833 0.317zM17.081 15.872c0.135-1.249-0.017-2.473-0.298-3.617l-0.865 0.216c0.266 1.081 0.401 2.203 0.279 3.328l0.884 0.073zM16.782 12.253c-0.095-0.378-0.215-0.815-0.45-1.199l-0.766 0.452c0.161 0.263 0.257 0.587 0.352 0.967l0.864-0.22zM16.332 11.054c-0.235-0.383-0.615-0.752-1.141-0.87l-0.216 0.841c0.218 0.049 0.43 0.218 0.591 0.481l0.766-0.452zM15.196 10.185c-0.523-0.123-1.155 0.043-1.544 0.508l0.686 0.535c0.15-0.18 0.416-0.256 0.633-0.205l0.225-0.838zM13.653 10.691c-0.291 0.345-0.394 0.782-0.375 1.165l0.888-0.057c-0.011-0.22 0.052-0.429 0.171-0.569l-0.683-0.538zM13.277 11.856c0.018 0.385 0.151 0.723 0.301 1.005l0.793-0.405c-0.119-0.225-0.195-0.44-0.205-0.657l-0.888 0.057zM13.578 12.861c0.36 0.684 0.907 1.225 1.371 1.714 0.48 0.506 0.887 0.969 1.11 1.546l0.833-0.317c-0.289-0.747-0.805-1.316-1.284-1.82-0.495-0.521-0.943-0.97-1.237-1.528l-0.793 0.405z"></path>
<path fill="#a3c8ea" style="fill: var(--color1, #a3c8ea)" d="M10.060 15.585c0.271-1.447-0.239-2.938-1.294-3.766-0.252-0.197-0.586-0.363-0.903-0.222-0.211 0.096-0.363 0.312-0.427 0.538s-0.049 0.459-0.009 0.676c0.131 0.733 0.534 1.361 1.036 1.862s1.102 0.885 1.695 1.266z"></path>
<path fill="#133351" style="fill: var(--color2, #133351)" d="M9.623 15.516c-0.044 0.235 0.116 0.457 0.357 0.495s0.473-0.121 0.517-0.357l-0.874-0.138zM8.765 11.819l0.284-0.337-0.001-0.001-0.282 0.338zM7.862 11.597l-0.179-0.391-0.003 0.002 0.183 0.39zM7.426 12.812l0.438-0.082-0-0.002-0.437 0.084zM9.907 16.3c0.203 0.13 0.479 0.074 0.617-0.125s0.086-0.467-0.117-0.597l-0.501 0.722zM10.497 15.654c0.297-1.581-0.253-3.235-1.448-4.173l-0.567 0.675c0.917 0.72 1.387 2.047 1.141 3.36l0.874 0.138zM9.047 11.481c-0.262-0.204-0.79-0.531-1.365-0.274l0.359 0.782c0.031-0.014 0.074-0.021 0.152 0.003 0.085 0.027 0.184 0.084 0.289 0.166l0.565-0.677zM7.68 11.208c-0.365 0.167-0.585 0.51-0.673 0.822l0.857 0.212c0.040-0.141 0.124-0.228 0.181-0.254l-0.365-0.779zM7.007 12.030c-0.088 0.315-0.064 0.619-0.018 0.866l0.875-0.168c-0.034-0.187-0.039-0.348 0-0.487l-0.857-0.212zM6.989 12.894c0.15 0.838 0.607 1.54 1.153 2.084l0.642-0.608c-0.459-0.457-0.807-1.012-0.919-1.639l-0.876 0.164zM8.141 14.977c0.54 0.538 1.18 0.946 1.766 1.323l0.501-0.722c-0.6-0.386-1.16-0.746-1.625-1.209l-0.642 0.608z"></path>
<path fill="#a3c8ea" style="fill: var(--color1, #a3c8ea)" d="M11.209 17.33c0.351-0.675 0.304-1.452 0.281-2.181s0.022-1.541 0.493-2.136c0.143-0.182 0.328-0.337 0.539-0.394s0.445-0.001 0.556 0.173c0.106 0.167 0.087 0.398 0.052 0.607-0.23 1.503-0.892 2.982-1.873 4.19z"></path>
<path fill="#133351" style="fill: var(--color2, #133351)" d="M10.816 17.137c-0.111 0.214-0.026 0.474 0.191 0.58s0.483 0.019 0.595-0.195l-0.786-0.385zM11.983 13.013l0.348 0.263 0.001-0.001-0.349-0.261zM13.077 12.792l0.376-0.232-0-0-0.376 0.232zM13.13 13.4l-0.436-0.065-0.001 0.006 0.437 0.059zM10.913 17.323c-0.153 0.188-0.123 0.46 0.067 0.608s0.468 0.114 0.621-0.074l-0.689-0.533zM11.602 17.522c0.414-0.796 0.352-1.699 0.329-2.393l-0.883 0.039c0.025 0.765 0.056 1.415-0.232 1.969l0.786 0.385zM11.931 15.129c-0.024-0.729 0.035-1.394 0.399-1.854l-0.695-0.525c-0.579 0.731-0.611 1.689-0.587 2.418l0.883-0.039zM12.332 13.274c0.111-0.142 0.222-0.216 0.302-0.238l-0.224-0.834c-0.34 0.092-0.601 0.328-0.775 0.55l0.697 0.522zM12.634 13.036c0.014-0.004 0.029-0.006 0.042-0.006s0.024 0.002 0.031 0.004c0.013 0.004 0.004 0.005-0.005-0.010l0.752-0.464c-0.242-0.381-0.707-0.449-1.044-0.358l0.224 0.834zM12.701 13.024c-0-0.001 0.011 0.018 0.014 0.079s-0.005 0.137-0.021 0.232l0.872 0.129c0.033-0.199 0.090-0.585-0.112-0.904l-0.752 0.463zM12.693 13.341c-0.218 1.426-0.848 2.833-1.78 3.982l0.689 0.533c1.029-1.268 1.724-2.818 1.965-4.398l-0.874-0.117z"></path>
<path fill="#a3c8ea" style="fill: var(--color1, #a3c8ea)" d="M11.369 17.562c-0.898-0.597-1.793-1.192-2.691-1.789-0.273-0.181-0.556-0.367-0.891-0.386s-0.731 0.181-0.833 0.529c-0.064 0.214-0.005 0.436 0.114 0.602 0.116 0.164 0.285 0.279 0.455 0.383 1.141 0.68 2.555 0.906 3.932 0.627z"></path>
<path fill="#133351" style="fill: var(--color2, #133351)" d="M11.115 17.921c0.201 0.133 0.477 0.081 0.617-0.117s0.091-0.466-0.109-0.6l-0.508 0.716zM8.677 15.774l0.254-0.358-0.001-0-0.253 0.359zM6.954 15.917l0.425 0.114 0.001-0.002-0.426-0.112zM7.069 16.519l0.367-0.249-0.002-0.003-0.364 0.252zM7.524 16.902l-0.241 0.366c0.002 0.001 0.004 0.002 0.006 0.003l0.236-0.369zM11.539 17.952c0.24-0.049 0.398-0.277 0.352-0.511s-0.278-0.383-0.518-0.335l0.166 0.846zM11.622 17.204c-0.449-0.298-0.897-0.596-1.345-0.894s-0.896-0.596-1.346-0.894l-0.508 0.716c0.449 0.298 0.897 0.596 1.345 0.894s0.896 0.596 1.346 0.894l0.508-0.716zM8.931 15.415c-0.253-0.168-0.635-0.431-1.11-0.459l-0.067 0.862c0.194 0.011 0.378 0.12 0.671 0.313l0.507-0.717zM7.82 14.957c-0.485-0.028-1.118 0.252-1.292 0.849l0.852 0.224c0.029-0.1 0.19-0.22 0.373-0.21l0.067-0.862zM6.529 15.803c-0.108 0.363-0.005 0.717 0.175 0.967l0.729-0.504c-0.059-0.082-0.072-0.172-0.053-0.236l-0.851-0.228zM6.702 16.768c0.171 0.242 0.409 0.395 0.58 0.501l0.483-0.732c-0.169-0.104-0.269-0.179-0.33-0.266l-0.733 0.498zM7.288 17.272c1.24 0.739 2.768 0.981 4.251 0.681l-0.166-0.846c-1.273 0.258-2.572 0.047-3.613-0.574l-0.472 0.739z"></path>
<path fill="#a3c8ea" style="fill: var(--color1, #a3c8ea)" d="M12.248 20.159c0.391-1.139 0.929-2.235 1.591-3.249 0.105-0.158 0.216-0.322 0.374-0.413 0.159-0.095 0.373-0.089 0.464 0.057 0.072 0.114 0.046 0.276 0.009 0.42-0.343 1.403-1.288 2.697-2.505 3.431z"></path>
<path fill="#133351" style="fill: var(--color2, #133351)" d="M11.831 20.023c-0.078 0.228 0.045 0.473 0.275 0.548s0.48-0.049 0.558-0.276l-0.834-0.271zM13.839 16.909l-0.368-0.234-0.001 0.002 0.37 0.232zM14.213 16.496l0.22 0.374 0.004-0.003-0.225-0.371zM14.677 16.553l-0.376 0.23 0.002 0.003 0.374-0.232zM14.686 16.973l-0.427-0.102-0.001 0.004 0.428 0.098zM11.954 20.035c-0.208 0.126-0.275 0.393-0.15 0.597s0.396 0.267 0.604 0.142l-0.455-0.739zM12.665 20.294c0.38-1.105 0.901-2.169 1.544-3.153l-0.739-0.465c-0.682 1.044-1.235 2.173-1.639 3.346l0.834 0.271zM14.208 17.144c0.116-0.175 0.174-0.244 0.226-0.274l-0.441-0.747c-0.263 0.152-0.428 0.41-0.522 0.552l0.736 0.469zM14.438 16.867c0.005-0.003 0.004 0.001-0.012-0.001-0.010-0.001-0.030-0.005-0.055-0.018-0.026-0.014-0.051-0.037-0.069-0.065l0.751-0.459c-0.131-0.21-0.345-0.303-0.537-0.321-0.186-0.017-0.374 0.031-0.528 0.122l0.449 0.742zM14.303 16.786c-0.027-0.042-0.020-0.068-0.021-0.043-0 0.011-0.002 0.027-0.006 0.050s-0.010 0.048-0.017 0.078l0.854 0.203c0.021-0.081 0.046-0.194 0.049-0.314s-0.013-0.284-0.111-0.44l-0.748 0.465zM14.258 16.875c-0.316 1.294-1.191 2.488-2.304 3.16l0.455 0.739c1.321-0.797 2.336-2.19 2.706-3.703l-0.856-0.196z"></path>
<path fill="#a3c8ea" style="fill: var(--color1, #a3c8ea)" d="M12.164 20.933c-1.098-0.255-1.833-1.2-2.701-1.885-0.243-0.194-0.515-0.374-0.833-0.414s-0.689 0.090-0.877 0.388c-0.158 0.251-0.148 0.577-0.033 0.822 0.113 0.249 0.317 0.433 0.533 0.589 1.106 0.815 2.626 1.047 4.036 0.615z"></path>
<path fill="#133351" style="fill: var(--color2, #133351)" d="M12.055 21.353c0.237 0.055 0.479-0.088 0.54-0.32s-0.082-0.465-0.32-0.52l-0.22 0.84zM9.463 19.047l-0.285 0.336 0.002 0.001 0.283-0.337zM7.754 19.022v0zM7.72 19.844l0.406-0.18-0.002-0.005-0.404 0.185zM8.253 20.433l0.271-0.346-0.003-0.002-0.269 0.348zM12.415 21.46c0.235-0.072 0.368-0.315 0.299-0.542s-0.317-0.353-0.551-0.281l0.253 0.823zM12.274 20.513c-0.451-0.105-0.847-0.355-1.257-0.693-0.205-0.169-0.404-0.351-0.615-0.543-0.208-0.189-0.426-0.385-0.656-0.567l-0.566 0.674c0.204 0.161 0.403 0.34 0.611 0.529 0.205 0.186 0.422 0.385 0.646 0.57 0.449 0.37 0.97 0.719 1.617 0.869l0.22-0.84zM9.748 18.712c-0.253-0.202-0.606-0.45-1.053-0.506l-0.129 0.856c0.188 0.024 0.379 0.135 0.612 0.321l0.57-0.671zM8.695 18.205c-0.459-0.058-1.020 0.123-1.318 0.595l0.753 0.443c0.079-0.124 0.259-0.204 0.436-0.181l0.129-0.856zM7.377 18.801c-0.251 0.399-0.224 0.881-0.060 1.229l0.808-0.371c-0.067-0.142-0.059-0.312 0.006-0.416l-0.754-0.442zM7.314 20.025c0.159 0.349 0.436 0.586 0.67 0.756l0.538-0.696c-0.196-0.142-0.328-0.274-0.396-0.422l-0.812 0.361zM7.982 20.779c1.226 0.903 2.895 1.152 4.434 0.68l-0.253-0.823c-1.281 0.393-2.651 0.178-3.638-0.549l-0.543 0.692z"></path>
<path fill="#a3c8ea" style="fill: var(--color1, #a3c8ea)" d="M11.372 27.058c0.273-1.282 0.225-2.604-0.14-3.787-0.068-0.224-0.15-0.446-0.303-0.615-0.149-0.168-0.382-0.275-0.615-0.22-0.389 0.093-0.602 0.57-0.62 0.974-0.025 0.697 0.33 1.301 0.695 1.84 0.363 0.543 0.761 1.099 0.833 1.78z"></path>
<path fill="#133351" style="fill: var(--color2, #133351)" d="M10.937 26.978c-0.050 0.234 0.105 0.459 0.345 0.503s0.475-0.11 0.525-0.345l-0.87-0.159zM11.232 23.27l-0.426 0.129 0.001 0.002 0.426-0.131zM10.93 22.655l-0.338 0.286 0.002 0.002 0.336-0.288zM10.315 22.436l-0.097-0.419-0.001 0 0.098 0.419zM9.695 23.409l-0.444-0.010-0 0.003 0.444 0.007zM10.389 25.249l0.374-0.24-0.001-0.002-0.373 0.242zM10.781 27.082c0.025 0.236 0.243 0.405 0.487 0.376s0.421-0.244 0.396-0.481l-0.884 0.105zM11.807 27.137c0.287-1.348 0.237-2.742-0.149-3.997l-0.852 0.262c0.342 1.112 0.389 2.361 0.13 3.577l0.87 0.159zM11.659 23.141c-0.069-0.228-0.172-0.53-0.392-0.774l-0.673 0.576c0.085 0.094 0.146 0.236 0.213 0.456l0.853-0.258zM11.268 22.369c-0.222-0.249-0.611-0.457-1.050-0.353l0.194 0.838c0.014-0.003 0.037-0.004 0.071 0.009 0.036 0.014 0.076 0.041 0.109 0.078l0.676-0.572zM10.216 22.017c-0.358 0.085-0.596 0.338-0.738 0.584-0.143 0.248-0.216 0.536-0.228 0.798l0.888 0.019c0.006-0.142 0.048-0.294 0.114-0.409 0.067-0.116 0.13-0.149 0.16-0.156l-0.196-0.837zM9.251 23.402c-0.030 0.844 0.401 1.548 0.766 2.089l0.745-0.483c-0.364-0.539-0.643-1.043-0.623-1.592l-0.888-0.013zM10.015 25.489c0.381 0.57 0.706 1.035 0.765 1.593l0.884-0.105c-0.085-0.803-0.556-1.451-0.901-1.967l-0.748 0.479z"></path>
<path fill="#a3c8ea" style="fill: var(--color1, #a3c8ea)" d="M14.903 24.682c0.475-1.415 0.965-2.859 1.819-4.099 0.118-0.175 0.25-0.347 0.414-0.471s0.376-0.197 0.555-0.146c0.274 0.077 0.4 0.421 0.352 0.731s-0.229 0.593-0.41 0.857c-0.739 1.064-1.605 2.031-2.468 2.995z"></path>
<path fill="#133351" style="fill: var(--color2, #133351)" d="M14.485 24.55c-0.077 0.228 0.049 0.472 0.28 0.545s0.48-0.053 0.557-0.281l-0.837-0.264zM16.723 20.584l0.364 0.241 0.002-0.004-0.366-0.237zM17.691 19.967l-0.126 0.417 0.001 0 0.125-0.417zM17.633 21.554l0.363 0.242 0.001-0.002-0.364-0.241zM14.835 24.264c-0.162 0.181-0.145 0.454 0.036 0.612s0.46 0.138 0.622-0.042l-0.659-0.569zM15.322 24.814c0.478-1.424 0.952-2.809 1.765-3.99l-0.728-0.481c-0.894 1.299-1.401 2.801-1.873 4.207l0.837 0.264zM17.089 20.82c0.111-0.165 0.211-0.287 0.314-0.366l-0.534-0.684c-0.224 0.17-0.389 0.392-0.513 0.576l0.733 0.474zM17.404 20.455c0.043-0.033 0.087-0.054 0.123-0.064s0.047-0.005 0.039-0.007l0.252-0.833c-0.366-0.104-0.724 0.051-0.948 0.221l0.534 0.684zM17.566 20.384c-0.022-0.006-0.006-0.015 0.017 0.038s0.036 0.134 0.023 0.214l0.871 0.124c0.036-0.23 0.009-0.477-0.086-0.692s-0.28-0.435-0.576-0.518l-0.249 0.834zM17.607 20.636c-0.032 0.201-0.154 0.409-0.339 0.678l0.728 0.481c0.179-0.26 0.416-0.617 0.482-1.035l-0.871-0.124zM17.27 21.312c-0.721 1.038-1.568 1.985-2.434 2.952l0.659 0.569c0.861-0.961 1.745-1.948 2.502-3.038l-0.726-0.484z"></path>
<path fill="#a3c8ea" style="fill: var(--color1, #a3c8ea)" d="M15.103 24.788c0.473 0.433 1.138 0.576 1.764 0.752s1.273 0.424 1.607 0.984c0.194 0.322 0.228 0.827-0.087 1.095-0.27 0.233-0.644 0.169-0.95 0.068-0.658-0.221-1.264-0.577-1.771-1.043-0.473-0.433-0.885-1.042-0.767-1.73z"></path>
<path fill="#133351" style="fill: var(--color2, #133351)" d="M15.41 24.472c-0.177-0.162-0.457-0.152-0.627 0.023s-0.164 0.448 0.013 0.61l0.615-0.633zM18.474 26.525l-0.385 0.222 0.001 0.001 0.384-0.223zM18.387 27.619l-0.288-0.323-0.003 0.002 0.291 0.321zM17.438 27.688l-0.151 0.408 0.002 0.001 0.149-0.409zM15.666 26.645v0zM15.337 24.979c0.040-0.236-0.123-0.455-0.365-0.49s-0.47 0.128-0.511 0.364l0.875 0.127zM14.796 25.105c0.568 0.521 1.367 0.689 1.941 0.85l0.26-0.83c-0.677-0.19-1.21-0.308-1.587-0.654l-0.615 0.633zM16.737 25.955c0.625 0.175 1.112 0.388 1.353 0.791l0.769-0.443c-0.428-0.718-1.235-1.001-1.862-1.177l-0.26 0.83zM18.090 26.748c0.057 0.094 0.092 0.221 0.088 0.339-0.004 0.115-0.042 0.178-0.079 0.21l0.577 0.646c0.277-0.236 0.38-0.559 0.389-0.844 0.009-0.283-0.069-0.569-0.207-0.797l-0.767 0.446zM18.097 27.299c-0.032 0.028-0.078 0.048-0.164 0.049-0.095 0-0.212-0.024-0.345-0.068l-0.299 0.818c0.306 0.101 0.914 0.254 1.39-0.156l-0.582-0.642zM17.589 27.279c-0.599-0.201-1.152-0.526-1.615-0.951l-0.615 0.633c0.552 0.506 1.211 0.894 1.927 1.134l0.302-0.817zM15.974 26.328c-0.439-0.403-0.718-0.878-0.637-1.35l-0.875-0.127c-0.154 0.903 0.391 1.645 0.898 2.109l0.615-0.633z"></path>
<path fill="#a3c8ea" style="fill: var(--color1, #a3c8ea)" d="M18.683 23.991c0.451-0.972 1.053-1.882 1.764-2.682 0.333-0.373 0.72-0.741 1.179-0.854 0.175-0.043 0.364-0.043 0.497 0.060 0.137 0.11 0.177 0.317 0.137 0.506s-0.146 0.363-0.271 0.518c-0.835 1.060-2.335 1.407-3.043 2.558z"></path>
<path fill="#133351" style="fill: var(--color2, #133351)" d="M18.28 23.817c-0.101 0.219-0.004 0.474 0.219 0.57s0.485-0.003 0.586-0.222l-0.805-0.348zM20.447 21.309l-0.331-0.282-0.001 0.001 0.332 0.281zM21.626 20.454l0.102 0.419 0-0-0.102-0.419zM22.122 20.515l0.284-0.336c-0.002-0.001-0.003-0.003-0.005-0.004l-0.279 0.34zM21.988 21.538l-0.346-0.264-0.003 0.004 0.349 0.261zM18.567 23.878c-0.127 0.206-0.060 0.471 0.149 0.592s0.481 0.052 0.607-0.154l-0.756-0.438zM19.085 24.165c0.433-0.933 1.011-1.807 1.694-2.575l-0.664-0.562c-0.739 0.832-1.365 1.777-1.834 2.789l0.805 0.348zM20.778 21.59c0.333-0.373 0.639-0.64 0.95-0.717l-0.205-0.839c-0.608 0.15-1.076 0.619-1.408 0.992l0.663 0.563zM21.728 20.874c0.053-0.013 0.093-0.015 0.116-0.013 0.021 0.002 0.014 0.006-0-0.006l0.558-0.679c-0.293-0.229-0.655-0.195-0.878-0.14l0.205 0.838zM21.838 20.85c-0.019-0.016-0.016-0.025-0.011-0.004s0.007 0.054-0.001 0.092l0.866 0.165c0.059-0.277 0.023-0.676-0.286-0.924l-0.568 0.671zM21.827 20.938c-0.020 0.095-0.080 0.206-0.185 0.336l0.692 0.529c0.145-0.18 0.297-0.417 0.358-0.699l-0.866-0.165zM21.639 21.278c-0.361 0.458-0.868 0.767-1.458 1.145-0.563 0.36-1.2 0.783-1.614 1.456l0.756 0.438c0.294-0.479 0.761-0.805 1.334-1.171 0.546-0.349 1.205-0.743 1.68-1.345l-0.698-0.522z"></path>
<path fill="#a3c8ea" style="fill: var(--color1, #a3c8ea)" d="M21.037 23.959c1.35-0.893 2.963-1.291 4.453-1.101 0.256 0.034 0.517 0.084 0.712 0.238 0.198 0.156 0.316 0.436 0.22 0.699-0.104 0.292-0.416 0.456-0.702 0.539-1.503 0.44-2.955-0.386-4.478-0.239z"></path>
<path fill="#133351" style="fill: var(--color2, #133351)" d="M20.792 23.604c-0.205 0.135-0.261 0.404-0.125 0.6s0.411 0.245 0.616 0.11l-0.49-0.71zM25.491 22.858l0.069-0.427-0.002-0-0.066 0.428zM26.202 23.096l-0.285 0.337 0.001 0.001 0.283-0.337zM26.422 23.795l-0.418-0.137-0.001 0.004 0.42 0.133zM25.72 24.334l-0.12-0.413-0.001 0 0.121 0.413zM21.207 23.666c-0.245 0.024-0.427 0.235-0.408 0.472s0.234 0.41 0.478 0.386l-0.071-0.858zM21.282 24.314c1.266-0.837 2.769-1.203 4.142-1.029l0.133-0.855c-1.607-0.205-3.33 0.226-4.765 1.174l0.49 0.71zM25.422 23.285c0.257 0.034 0.404 0.075 0.496 0.148l0.569-0.673c-0.298-0.236-0.672-0.295-0.927-0.329l-0.137 0.855zM25.919 23.433c0.036 0.028 0.067 0.070 0.082 0.116 0.015 0.043 0.013 0.080 0.003 0.108l0.837 0.274c0.172-0.469-0.043-0.929-0.355-1.173l-0.567 0.675zM26.002 23.662c-0.028 0.079-0.148 0.185-0.402 0.259l0.239 0.826c0.317-0.092 0.823-0.314 1.002-0.819l-0.84-0.266zM25.6 23.921c-0.639 0.187-1.284 0.111-2.021-0.021-0.708-0.127-1.53-0.315-2.371-0.234l0.071 0.858c0.682-0.066 1.348 0.085 2.122 0.224 0.745 0.134 1.577 0.251 2.441-0.002l-0.241-0.825z"></path>
<path fill="#a3c8ea" style="fill: var(--color1, #a3c8ea)" d="M19.296 23.965c0.223 0.652 0.845 1.026 1.455 1.295s1.275 0.492 1.716 0.991c0.211 0.235 0.35 0.635 0.116 0.904-0.179 0.202-0.474 0.201-0.715 0.157-1.553-0.283-2.756-1.657-2.886-3.304z"></path>
<path fill="#133351" style="fill: var(--color2, #133351)" d="M19.717 23.822c-0.077-0.225-0.328-0.343-0.561-0.264s-0.359 0.325-0.282 0.55l0.842-0.286zM22.467 26.25l-0.339 0.285 0.002 0.002 0.336-0.287zM22.583 27.154l0.333 0.279 0.004-0.004-0.337-0.275zM21.867 27.311l0.090-0.424-0.001-0-0.089 0.424zM19.424 23.967c-0.019-0.237-0.232-0.412-0.476-0.389s-0.427 0.233-0.409 0.47l0.885-0.081zM18.875 24.107c0.285 0.835 1.065 1.272 1.687 1.546l0.377-0.788c-0.598-0.263-1.062-0.574-1.222-1.044l-0.842 0.286zM20.562 25.653c0.331 0.145 0.615 0.253 0.898 0.398 0.272 0.139 0.496 0.29 0.668 0.484l0.677-0.57c-0.27-0.305-0.598-0.515-0.921-0.68-0.312-0.159-0.665-0.297-0.944-0.42l-0.377 0.788zM22.13 26.537c0.062 0.069 0.11 0.161 0.125 0.24 0.014 0.074-0.004 0.096-0.010 0.103l0.674 0.549c0.228-0.263 0.257-0.576 0.207-0.828-0.048-0.247-0.175-0.473-0.324-0.638l-0.673 0.574zM22.249 26.875c-0.002 0.002-0.012 0.016-0.063 0.023-0.057 0.009-0.135 0.006-0.228-0.012l-0.181 0.848c0.257 0.047 0.785 0.096 1.139-0.302l-0.667-0.558zM21.957 26.887c-1.341-0.244-2.417-1.447-2.532-2.92l-0.885 0.081c0.143 1.821 1.474 3.366 3.239 3.688l0.178-0.849z"></path>
</symbol>
<symbol id="icon-minus-quantity" viewBox="0 0 32 32">
<path fill="#a3c8ea" style="fill: var(--color1, #a3c8ea)" d="M8 15.5c0-0.828 0.672-1.5 1.5-1.5h12c0.828 0 1.5 0.672 1.5 1.5s-0.672 1.5-1.5 1.5h-12c-0.828 0-1.5-0.672-1.5-1.5z"></path>
<path fill="none" stroke="#a3c8ea" style="stroke: var(--color1, #a3c8ea)" stroke-linejoin="miter" stroke-linecap="butt" stroke-miterlimit="4" stroke-width="4" d="M16 2c7.732 0 14 6.268 14 14s-6.268 14-14 14c-7.732 0-14-6.268-14-14s6.268-14 14-14z"></path>
</symbol>
<symbol id="icon-minus-quantity-active" viewBox="0 0 32 32">
<path fill="#5297d7" style="fill: var(--color3, #5297d7)" d="M16 0c8.837 0 16 7.163 16 16s-7.163 16-16 16c-8.837 0-16-7.163-16-16s7.163-16 16-16z"></path>
<path fill="#fff" style="fill: var(--color4, #fff)" d="M8 15.5c0-0.828 0.672-1.5 1.5-1.5h12c0.828 0 1.5 0.672 1.5 1.5s-0.672 1.5-1.5 1.5h-12c-0.828 0-1.5-0.672-1.5-1.5z"></path>
</symbol>
<symbol id="icon-minus-quantity-hover" viewBox="0 0 32 32">
<path fill="#a3c8ea" style="fill: var(--color1, #a3c8ea)" d="M16 0c8.837 0 16 7.163 16 16s-7.163 16-16 16c-8.837 0-16-7.163-16-16s7.163-16 16-16z"></path>
<path fill="#fff" style="fill: var(--color4, #fff)" d="M8 15.5c0-0.828 0.672-1.5 1.5-1.5h12c0.828 0 1.5 0.672 1.5 1.5s-0.672 1.5-1.5 1.5h-12c-0.828 0-1.5-0.672-1.5-1.5z"></path>
</symbol>
<symbol id="icon-plus-quantity" viewBox="0 0 32 32">
<path fill="#a3c8ea" style="fill: var(--color1, #a3c8ea)" d="M17.177 9.5c0-0.828-0.672-1.5-1.5-1.5s-1.5 0.672-1.5 1.5v4.323h-4.677c-0.828 0-1.5 0.672-1.5 1.5s0.672 1.5 1.5 1.5h4.677v4.677c0 0.828 0.671 1.5 1.5 1.5s1.5-0.672 1.5-1.5v-4.677h4.323c0.828 0 1.5-0.671 1.5-1.5s-0.672-1.5-1.5-1.5h-4.323v-4.323z"></path>
<path fill="none" stroke="#a3c8ea" style="stroke: var(--color1, #a3c8ea)" stroke-linejoin="miter" stroke-linecap="butt" stroke-miterlimit="4" stroke-width="4" d="M16 2c7.732 0 14 6.268 14 14s-6.268 14-14 14c-7.732 0-14-6.268-14-14s6.268-14 14-14z"></path>
</symbol>
<symbol id="icon-plus-quantity-active" viewBox="0 0 32 32">
<path fill="#5297d7" style="fill: var(--color3, #5297d7)" d="M16 0c8.837 0 16 7.163 16 16s-7.163 16-16 16c-8.837 0-16-7.163-16-16s7.163-16 16-16z"></path>
<path fill="#fff" style="fill: var(--color4, #fff)" d="M17.177 9.5c0-0.828-0.672-1.5-1.5-1.5s-1.5 0.672-1.5 1.5v4.323h-4.677c-0.828 0-1.5 0.672-1.5 1.5s0.672 1.5 1.5 1.5h4.677v4.677c0 0.828 0.671 1.5 1.5 1.5s1.5-0.672 1.5-1.5v-4.677h4.323c0.828 0 1.5-0.671 1.5-1.5s-0.672-1.5-1.5-1.5h-4.323v-4.323z"></path>
</symbol>
<symbol id="icon-plus-quantity-hover" viewBox="0 0 32 32">
<path fill="#a3c8ea" style="fill: var(--color1, #a3c8ea)" d="M16 0c8.837 0 16 7.163 16 16s-7.163 16-16 16c-8.837 0-16-7.163-16-16s7.163-16 16-16z"></path>
<path fill="#fff" style="fill: var(--color4, #fff)" d="M17.177 9.5c0-0.828-0.672-1.5-1.5-1.5s-1.5 0.672-1.5 1.5v4.323h-4.677c-0.828 0-1.5 0.672-1.5 1.5s0.672 1.5 1.5 1.5h4.677v4.677c0 0.828 0.671 1.5 1.5 1.5s1.5-0.672 1.5-1.5v-4.677h4.323c0.828 0 1.5-0.671 1.5-1.5s-0.672-1.5-1.5-1.5h-4.323v-4.323z"></path>
</symbol>
<symbol id="icon-add-to-cart-active" viewBox="0 0 53 32">
<path fill="#5297d7" style="fill: var(--color3, #5297d7)" d="M10.667 0h32c5.891 0 10.667 4.776 10.667 10.667v10.667c0 5.891-4.776 10.667-10.667 10.667h-32c-5.891 0-10.667-4.776-10.667-10.667v-10.667c0-5.891 4.776-10.667 10.667-10.667z"></path>
<path fill="#fff" style="fill: var(--color4, #fff)" d="M19.518 12c0-0.552-0.448-1-1-1s-1 0.448-1 1v2.882h-3.118c-0.552 0-1 0.448-1 1s0.448 1 1 1h3.118v3.118c0 0.552 0.448 1 1 1s1-0.448 1-1v-3.118h2.882c0.552 0 1-0.448 1-1s-0.448-1-1-1h-2.882v-2.882z"></path>
<path fill="#fff" style="fill: var(--color4, #fff)" d="M29.796 21.428c-0.261 0-0.517 0.073-0.735 0.211s-0.387 0.333-0.487 0.562c-0.1 0.229-0.126 0.481-0.075 0.724s0.177 0.466 0.362 0.641c0.185 0.175 0.421 0.294 0.677 0.343s0.522 0.024 0.764-0.071c0.242-0.095 0.448-0.255 0.593-0.461s0.223-0.448 0.223-0.696c0-0.332-0.139-0.651-0.387-0.886s-0.584-0.367-0.935-0.367zM39.052 18.923h-10.578c-0.234 0-0.458-0.088-0.623-0.245s-0.258-0.369-0.258-0.59 0.093-0.434 0.258-0.591c0.165-0.157 0.39-0.245 0.623-0.245h7.485c0.574-0.002 1.132-0.18 1.591-0.507s0.793-0.787 0.952-1.31l1.397-4.635c0.037-0.124 0.044-0.255 0.019-0.382s-0.081-0.247-0.163-0.35c-0.082-0.103-0.188-0.187-0.31-0.244s-0.256-0.088-0.393-0.088h-10.807c-0.183-0.487-0.519-0.908-0.964-1.207s-0.976-0.46-1.522-0.463h-0.811c-0.234 0-0.458 0.088-0.623 0.245s-0.258 0.369-0.258 0.59c0 0.222 0.093 0.434 0.258 0.591s0.39 0.245 0.623 0.245h0.812c0.191 0.001 0.377 0.060 0.53 0.169s0.264 0.262 0.318 0.436l0.137 0.455v0.004l1.447 4.795c-0.673 0.068-1.293 0.378-1.732 0.867s-0.664 1.118-0.627 1.758c0.036 0.641 0.331 1.244 0.822 1.685s1.143 0.687 1.82 0.686h10.578c0.234 0 0.458-0.088 0.623-0.245s0.258-0.369 0.258-0.591c0-0.221-0.093-0.434-0.258-0.59s-0.39-0.245-0.623-0.245zM36.848 21.428c-0.262 0-0.517 0.073-0.735 0.211s-0.387 0.333-0.487 0.562-0.126 0.481-0.075 0.724c0.051 0.243 0.177 0.466 0.362 0.641s0.42 0.294 0.677 0.343c0.256 0.048 0.522 0.024 0.764-0.071s0.448-0.255 0.593-0.461c0.145-0.206 0.223-0.448 0.223-0.696 0-0.332-0.139-0.651-0.387-0.886s-0.584-0.367-0.935-0.367z"></path>
</symbol>
<symbol id="icon-add-to-cart-hover" viewBox="0 0 53 32">
<path fill="#a3c8ea" style="fill: var(--color1, #a3c8ea)" d="M10.667 0h32c5.891 0 10.667 4.776 10.667 10.667v10.667c0 5.891-4.776 10.667-10.667 10.667h-32c-5.891 0-10.667-4.776-10.667-10.667v-10.667c0-5.891 4.776-10.667 10.667-10.667z"></path>
<path fill="#fff" style="fill: var(--color4, #fff)" d="M19.518 12c0-0.552-0.448-1-1-1s-1 0.448-1 1v2.882h-3.118c-0.552 0-1 0.448-1 1s0.448 1 1 1h3.118v3.118c0 0.552 0.448 1 1 1s1-0.448 1-1v-3.118h2.882c0.552 0 1-0.448 1-1s-0.448-1-1-1h-2.882v-2.882z"></path>
<path fill="#fff" style="fill: var(--color4, #fff)" d="M29.796 21.428c-0.261 0-0.517 0.073-0.735 0.211s-0.387 0.333-0.487 0.562c-0.1 0.229-0.126 0.481-0.075 0.724s0.177 0.466 0.362 0.641c0.185 0.175 0.421 0.294 0.677 0.343s0.522 0.024 0.764-0.071c0.242-0.095 0.448-0.255 0.593-0.461s0.223-0.448 0.223-0.696c0-0.332-0.139-0.651-0.387-0.886s-0.584-0.367-0.935-0.367zM39.052 18.923h-10.578c-0.234 0-0.458-0.088-0.623-0.245s-0.258-0.369-0.258-0.59 0.093-0.434 0.258-0.591c0.165-0.157 0.39-0.245 0.623-0.245h7.485c0.574-0.002 1.132-0.18 1.591-0.507s0.793-0.787 0.952-1.31l1.397-4.635c0.037-0.124 0.044-0.255 0.019-0.382s-0.081-0.247-0.163-0.35c-0.082-0.103-0.188-0.187-0.31-0.244s-0.256-0.088-0.393-0.088h-10.807c-0.183-0.487-0.519-0.908-0.964-1.207s-0.976-0.46-1.522-0.463h-0.811c-0.234 0-0.458 0.088-0.623 0.245s-0.258 0.369-0.258 0.59c0 0.222 0.093 0.434 0.258 0.591s0.39 0.245 0.623 0.245h0.812c0.191 0.001 0.377 0.060 0.53 0.169s0.264 0.262 0.318 0.436l0.137 0.455v0.004l1.447 4.795c-0.673 0.068-1.293 0.378-1.732 0.867s-0.664 1.118-0.627 1.758c0.036 0.641 0.331 1.244 0.822 1.685s1.143 0.687 1.82 0.686h10.578c0.234 0 0.458-0.088 0.623-0.245s0.258-0.369 0.258-0.591c0-0.221-0.093-0.434-0.258-0.59s-0.39-0.245-0.623-0.245zM36.848 21.428c-0.262 0-0.517 0.073-0.735 0.211s-0.387 0.333-0.487 0.562-0.126 0.481-0.075 0.724c0.051 0.243 0.177 0.466 0.362 0.641s0.42 0.294 0.677 0.343c0.256 0.048 0.522 0.024 0.764-0.071s0.448-0.255 0.593-0.461c0.145-0.206 0.223-0.448 0.223-0.696 0-0.332-0.139-0.651-0.387-0.886s-0.584-0.367-0.935-0.367z"></path>
</symbol>
<symbol id="icon-add-to-cart-normal" viewBox="0 0 53 32">
<path fill="#a3c8ea" style="fill: var(--color1, #a3c8ea)" d="M19.518 12c0-0.552-0.448-1-1-1s-1 0.448-1 1v2.882h-3.118c-0.552 0-1 0.448-1 1s0.448 1 1 1h3.118v3.118c0 0.552 0.448 1 1 1s1-0.448 1-1v-3.118h2.882c0.552 0 1-0.448 1-1s-0.448-1-1-1h-2.882v-2.882z"></path>
<path fill="#a3c8ea" style="fill: var(--color1, #a3c8ea)" d="M29.796 21.428c-0.261 0-0.517 0.073-0.735 0.211s-0.387 0.333-0.487 0.562c-0.1 0.229-0.126 0.481-0.075 0.724s0.177 0.466 0.362 0.641c0.185 0.175 0.421 0.294 0.677 0.343s0.522 0.024 0.764-0.071c0.242-0.095 0.448-0.255 0.593-0.461s0.223-0.448 0.223-0.696c0-0.332-0.139-0.651-0.387-0.886s-0.584-0.367-0.935-0.367zM39.052 18.923h-10.578c-0.234 0-0.458-0.088-0.623-0.245s-0.258-0.369-0.258-0.59 0.093-0.434 0.258-0.591c0.165-0.157 0.39-0.245 0.623-0.245h7.485c0.574-0.002 1.132-0.18 1.591-0.507s0.793-0.787 0.952-1.31l1.397-4.635c0.037-0.124 0.044-0.255 0.019-0.382s-0.081-0.247-0.163-0.35c-0.082-0.103-0.188-0.187-0.31-0.244s-0.256-0.088-0.393-0.088h-10.807c-0.183-0.487-0.519-0.908-0.964-1.207s-0.976-0.46-1.522-0.463h-0.811c-0.234 0-0.458 0.088-0.623 0.245s-0.258 0.369-0.258 0.59c0 0.222 0.093 0.434 0.258 0.591s0.39 0.245 0.623 0.245h0.812c0.191 0.001 0.377 0.060 0.53 0.169s0.264 0.262 0.318 0.436l0.137 0.455v0.004l1.447 4.795c-0.673 0.068-1.293 0.378-1.732 0.867s-0.664 1.118-0.627 1.758c0.036 0.641 0.331 1.244 0.822 1.685s1.143 0.687 1.82 0.686h10.578c0.234 0 0.458-0.088 0.623-0.245s0.258-0.369 0.258-0.591c0-0.221-0.093-0.434-0.258-0.59s-0.39-0.245-0.623-0.245zM36.848 21.428c-0.262 0-0.517 0.073-0.735 0.211s-0.387 0.333-0.487 0.562-0.126 0.481-0.075 0.724c0.051 0.243 0.177 0.466 0.362 0.641s0.42 0.294 0.677 0.343c0.256 0.048 0.522 0.024 0.764-0.071s0.448-0.255 0.593-0.461c0.145-0.206 0.223-0.448 0.223-0.696 0-0.332-0.139-0.651-0.387-0.886s-0.584-0.367-0.935-0.367z"></path>
<path fill="none" stroke="#a3c8ea" style="stroke: var(--color1, #a3c8ea)" stroke-linejoin="miter" stroke-linecap="butt" stroke-miterlimit="4" stroke-width="2.6667" d="M10.667 1.333h32c5.155 0 9.333 4.179 9.333 9.333v10.667c0 5.155-4.179 9.333-9.333 9.333h-32c-5.155 0-9.333-4.179-9.333-9.333v-10.667c0-5.155 4.179-9.333 9.333-9.333z"></path>
</symbol>
<symbol id="icon-arrow-down" viewBox="0 0 32 32">
<path d="M15.394 18.061l-5.394-5.394c-0.368-0.368-0.965-0.368-1.333 0s-0.368 0.965 0 1.333l6 6c0.736 0.736 1.93 0.736 2.667 0l6-6c0.368-0.368 0.368-0.965 0-1.333s-0.965-0.368-1.333 0l-5.394 5.394c-0.335 0.335-0.877 0.335-1.212 0z"></path>
</symbol>
</defs>
</svg>
